<svg width="40" height="41" viewBox="0 0 40 41" fill="none" xmlns="http://www.w3.org/2000/svg">
<path d="M35.0012 35.6182L25.0012 25.6182M28.3345 17.2848C28.3345 18.8169 28.0327 20.334 27.4464 21.7495C26.8601 23.1649 26.0008 24.4511 24.9174 25.5344C23.8341 26.6178 22.5479 27.4771 21.1325 28.0634C19.717 28.6497 18.1999 28.9515 16.6678 28.9515C15.1357 28.9515 13.6187 28.6497 12.2032 28.0634C10.7877 27.4771 9.5016 26.6178 8.41825 25.5344C7.3349 24.4511 6.47554 23.1649 5.88923 21.7495C5.30293 20.334 5.00116 18.8169 5.00116 17.2848C5.00116 14.1906 6.23032 11.2232 8.41825 9.03525C10.6062 6.84733 13.5736 5.61816 16.6678 5.61816C19.762 5.61816 22.7295 6.84733 24.9174 9.03525C27.1053 11.2232 28.3345 14.1906 28.3345 17.2848Z" stroke="white" stroke-width="2" stroke-linecap="round" stroke-linejoin="round"/>
</svg>
