<svg width="41" height="40" viewBox="0 0 41 40" fill="none" xmlns="http://www.w3.org/2000/svg">
<path d="M9.035 29.6733C12.5324 27.6965 16.4826 26.6606 20.5 26.6667C24.6667 26.6667 28.5783 27.7583 31.965 29.6733M25.5 16.6667C25.5 17.9927 24.9732 19.2645 24.0355 20.2022C23.0979 21.1399 21.8261 21.6667 20.5 21.6667C19.1739 21.6667 17.9021 21.1399 16.9645 20.2022C16.0268 19.2645 15.5 17.9927 15.5 16.6667C15.5 15.3406 16.0268 14.0688 16.9645 13.1311C17.9021 12.1935 19.1739 11.6667 20.5 11.6667C21.8261 11.6667 23.0979 12.1935 24.0355 13.1311C24.9732 14.0688 25.5 15.3406 25.5 16.6667ZM35.5 20C35.5 21.9698 35.112 23.9204 34.3582 25.7403C33.6044 27.5601 32.4995 29.2137 31.1066 30.6066C29.7137 31.9995 28.0601 33.1044 26.2403 33.8582C24.4204 34.612 22.4698 35 20.5 35C18.5302 35 16.5796 34.612 14.7597 33.8582C12.9399 33.1044 11.2863 31.9995 9.8934 30.6066C8.50052 29.2137 7.39563 27.5601 6.64181 25.7403C5.88799 23.9204 5.5 21.9698 5.5 20C5.5 16.0218 7.08035 12.2064 9.8934 9.3934C12.7064 6.58035 16.5218 5 20.5 5C24.4782 5 28.2936 6.58035 31.1066 9.3934C33.9196 12.2064 35.5 16.0218 35.5 20Z" stroke="white" stroke-width="2" stroke-linecap="round" stroke-linejoin="round"/>
</svg>
